<svg width="1200" height="800" viewBox="0 0 1200 800" fill="none" xmlns="http://www.w3.org/2000/svg">
  <defs>
    <linearGradient id="bg" x1="120" y1="80" x2="1080" y2="720" gradientUnits="userSpaceOnUse">
      <stop offset="0" stop-color="#0F172A" />
      <stop offset="1" stop-color="#334155" />
    </linearGradient>
    <linearGradient id="panel" x1="220" y1="200" x2="980" y2="600" gradientUnits="userSpaceOnUse">
      <stop offset="0" stop-color="#1E293B" />
      <stop offset="1" stop-color="#0B1220" />
    </linearGradient>
    <linearGradient id="accent" x1="300" y1="260" x2="860" y2="540" gradientUnits="userSpaceOnUse">
      <stop offset="0" stop-color="#22D3EE" />
      <stop offset="1" stop-color="#818CF8" />
    </linearGradient>
  </defs>
  <rect width="1200" height="800" rx="24" fill="url(#bg)" />
  <rect x="180" y="150" width="840" height="500" rx="26" fill="url(#panel)" stroke="#334155" stroke-width="2" />
  <rect x="220" y="190" width="760" height="52" rx="12" fill="#0F172A" />
  <circle cx="252" cy="216" r="7" fill="#334155" />
  <circle cx="276" cy="216" r="7" fill="#475569" />
  <circle cx="300" cy="216" r="7" fill="#64748B" />
  <rect x="260" y="290" width="320" height="150" rx="16" fill="#0F172A" stroke="#334155" />
  <rect x="620" y="290" width="320" height="150" rx="16" fill="#0F172A" stroke="#334155" />
  <rect x="260" y="470" width="680" height="140" rx="16" fill="#0F172A" stroke="#334155" />
  <path d="M315 355H525" stroke="url(#accent)" stroke-width="12" stroke-linecap="round" />
  <path d="M675 355H885" stroke="url(#accent)" stroke-width="12" stroke-linecap="round" />
  <path d="M315 540H885" stroke="url(#accent)" stroke-width="12" stroke-linecap="round" />
  <text x="600" y="120" text-anchor="middle" fill="#E2E8F0" font-family="Inter, Segoe UI, Arial, sans-serif" font-size="42" font-weight="600">
    Personal Ecosystem Portfolio
  </text>
</svg>
