<svg width="1200" height="800" viewBox="0 0 1200 800" fill="none" xmlns="http://www.w3.org/2000/svg">
  <defs>
    <linearGradient id="bg" x1="120" y1="80" x2="1080" y2="720" gradientUnits="userSpaceOnUse">
      <stop offset="0" stop-color="#0B1220" />
      <stop offset="1" stop-color="#1E293B" />
    </linearGradient>
    <linearGradient id="panel" x1="220" y1="190" x2="980" y2="620" gradientUnits="userSpaceOnUse">
      <stop offset="0" stop-color="#111827" />
      <stop offset="1" stop-color="#0A0F1A" />
    </linearGradient>
    <linearGradient id="accent" x1="280" y1="260" x2="900" y2="560" gradientUnits="userSpaceOnUse">
      <stop offset="0" stop-color="#38BDF8" />
      <stop offset="1" stop-color="#A78BFA" />
    </linearGradient>
  </defs>
  <rect width="1200" height="800" rx="24" fill="url(#bg)" />
  <rect x="180" y="150" width="840" height="500" rx="26" fill="url(#panel)" stroke="#334155" stroke-width="2" />
  <rect x="220" y="190" width="760" height="56" rx="12" fill="#0F172A" />
  <circle cx="252" cy="218" r="7" fill="#334155" />
  <circle cx="276" cy="218" r="7" fill="#475569" />
  <circle cx="300" cy="218" r="7" fill="#64748B" />
  <rect x="260" y="290" width="430" height="160" rx="16" fill="#0F172A" stroke="#334155" />
  <rect x="710" y="290" width="230" height="160" rx="16" fill="#0F172A" stroke="#334155" />
  <rect x="260" y="472" width="680" height="138" rx="16" fill="#0F172A" stroke="#334155" />
  <path d="M302 338H648" stroke="url(#accent)" stroke-width="12" stroke-linecap="round" />
  <path d="M302 374H574" stroke="#475569" stroke-width="9" stroke-linecap="round" />
  <path d="M744 346H904" stroke="url(#accent)" stroke-width="10" stroke-linecap="round" />
  <path d="M304 540H892" stroke="url(#accent)" stroke-width="12" stroke-linecap="round" />
  <text x="600" y="118" text-anchor="middle" fill="#E2E8F0" font-family="Inter, Segoe UI, Arial, sans-serif" font-size="44" font-weight="600">
    VoicePress
  </text>
</svg>
